<svg xmlns="http://www.w3.org/2000/svg" viewBox="0 0 1600 900" preserveAspectRatio="xMidYMid slice">
  <defs>
    <linearGradient id="sky" x1="0" y1="0" x2="0" y2="1">
      <stop offset="0%" stop-color="#F8F0E2"/>
      <stop offset="100%" stop-color="#EBD9BC"/>
    </linearGradient>
    <pattern id="grid" x="0" y="0" width="60" height="60" patternUnits="userSpaceOnUse">
      <path d="M 60 0 L 0 0 0 60" fill="none" stroke="#C45E1A" stroke-width="0.5" stroke-opacity="0.18"/>
    </pattern>
  </defs>

  <rect width="1600" height="900" fill="url(#sky)"/>
  <rect width="1600" height="900" fill="url(#grid)"/>

  <!-- industrial gear motif -->
  <g transform="translate(1280,200)" opacity="0.85">
    <circle cx="0" cy="0" r="140" fill="none" stroke="#C45E1A" stroke-width="3"/>
    <circle cx="0" cy="0" r="92" fill="none" stroke="#1F3B36" stroke-width="2"/>
    <circle cx="0" cy="0" r="36" fill="#C45E1A" fill-opacity="0.7"/>
    <g stroke="#C45E1A" stroke-width="3">
      <line x1="0" y1="-160" x2="0" y2="-130"/>
      <line x1="0" y1="160" x2="0" y2="130"/>
      <line x1="-160" y1="0" x2="-130" y2="0"/>
      <line x1="160" y1="0" x2="130" y2="0"/>
      <line x1="-113" y1="-113" x2="-92" y2="-92"/>
      <line x1="113" y1="113" x2="92" y2="92"/>
      <line x1="-113" y1="113" x2="-92" y2="92"/>
      <line x1="113" y1="-113" x2="92" y2="-92"/>
    </g>
  </g>

  <!-- top meta -->
  <text x="120" y="160" fill="#7A5E3E" font-family="JetBrains Mono, monospace" font-size="18" letter-spacing="5">IMPACT FOR PUGLIA  ·  2025  ·  AI ORCHESTRATION</text>

  <!-- main wordmark -->
  <text x="120" y="430" fill="#1F1A14" font-family="Fraunces, Newsreader, Georgia, serif" font-weight="400" font-size="200" letter-spacing="-3">TEKNA</text>
  <line x1="120" y1="460" x2="320" y2="460" stroke="#C45E1A" stroke-width="3"/>
  <text x="120" y="510" fill="#6E5E48" font-family="Fraunces, Newsreader, Georgia, serif" font-style="italic" font-size="36">automazioni &amp; controllo · revamping</text>
  <text x="120" y="552" fill="#1F1A14" font-family="Inter, sans-serif" font-size="22" letter-spacing="1">n8n content agent  ·  landing + chatbot  ·  shipped to production</text>

  <!-- bottom meta -->
  <text x="120" y="820" fill="#7A5E3E" font-family="JetBrains Mono, monospace" font-size="16" letter-spacing="4">SCALE FROM ORCHESTRATION, NOT HEADCOUNT</text>
</svg>
