<svg xmlns="http://www.w3.org/2000/svg" viewBox="0 0 318.78 103.69"><defs><style>.cls-1{fill:#fff;}.cls-2{fill:#e30613;}</style></defs><g id="Livello_2" data-name="Livello 2"><g id="Livello_1-2" data-name="Livello 1"><path class="cls-1" d="M110.07,0H0V20H15.27V54.18H40.48V20h16.3V54.18h78.51V0Zm0,39.63H82V34.37h28.07Zm0-19.81H82V14.55h28.07Z"/><path class="cls-1" d="M318.78,54.18,300.05,0H217.21V19.56L202.81,0H152.4L135.31,27.09,152.4,54.18h50.41v-20l14.4,19.56v.39H318.78Zm-141.19,0L160.53,27.09,177.59,0Z"/><path d="M255.43,16.8l3.39,9.81H252ZM261.24,0H236L217.3,54.18h25.21l4.5-13h16.84l4.5,13h25.22L274.84,0Z"/><rect class="cls-2" x="0.72" y="63.47" width="317.34" height="21.85"/><path class="cls-1" d="M266.11,96.74a5.8,5.8,0,0,0,1.18,3.85,3.8,3.8,0,0,0,5.35.54,3.45,3.45,0,0,0,.54-.54,6.27,6.27,0,0,0,1.16-4,7.81,7.81,0,0,0-.49-2.87,4.09,4.09,0,0,0-1.46-1.9,3.56,3.56,0,0,0-2.14-.68,3.81,3.81,0,0,0-2.91,1.3c-.82.87-1.23,2.32-1.23,4.36m-1.65,0a7.8,7.8,0,0,1,1.62-5.26,5.17,5.17,0,0,1,4.15-1.91,5.25,5.25,0,0,1,3,.91,5.43,5.43,0,0,1,2,2.49,9.52,9.52,0,0,1,0,7.3,5.4,5.4,0,0,1-5,3.28,5.18,5.18,0,0,1-3-.92,5.79,5.79,0,0,1-2-2.51,8.55,8.55,0,0,1-.69-3.38m-8.28,6.58V89.77h1.6v11.91h5.93v1.6Zm-8.71,0V89.77h1.6v11.91H255v1.6Zm-11.09-6.54a5.79,5.79,0,0,0,1.17,3.85,3.84,3.84,0,0,0,5.93,0,6.15,6.15,0,0,0,1.16-4,7.8,7.8,0,0,0-.48-2.87,4.16,4.16,0,0,0-1.47-1.9,3.56,3.56,0,0,0-2.14-.68,3.86,3.86,0,0,0-2.91,1.3c-.82.87-1.22,2.32-1.22,4.36m-1.65,0a7.79,7.79,0,0,1,1.61-5.26,5.45,5.45,0,0,1,7.17-1,5.55,5.55,0,0,1,2,2.49,9.61,9.61,0,0,1,0,7.3,5.4,5.4,0,0,1-5,3.28,5.17,5.17,0,0,1-3.05-.92,5.79,5.79,0,0,1-2-2.51,8.38,8.38,0,0,1-.69-3.38m-9.32-1H229a4.73,4.73,0,0,0,1.71-.25,1.88,1.88,0,0,0,.93-.81,2.31,2.31,0,0,0,.32-1.23,2.08,2.08,0,0,0-.62-1.56,2.65,2.65,0,0,0-2-.62h-3.82ZM224,103.42V89.77h5.33a6.87,6.87,0,0,1,2.46.36A2.82,2.82,0,0,1,233,91.42a4.1,4.1,0,0,1,.51,2,3.6,3.6,0,0,1-.83,2.44,4,4,0,0,1-2.57,1.24,4.53,4.53,0,0,1,1,.68,9.42,9.42,0,0,1,1.33,1.8l2.1,3.67h-2L231,100.44c-.47-.81-.86-1.43-1.16-1.86a3.82,3.82,0,0,0-.81-.89,2.17,2.17,0,0,0-.72-.38,4.54,4.54,0,0,0-.9-.06h-1.85v6Zm-6.58,0v-12h-4V89.77h9.54v1.61h-4v11.9Zm-14.2,0V89.77h1.64L211,100.38V89.77h1.53v13.51H210.9l-6.33-10.62v10.62Zm-11.14-6.54a5.79,5.79,0,0,0,1.17,3.85,3.79,3.79,0,0,0,5.78-.14,6.15,6.15,0,0,0,1.16-4,7.8,7.8,0,0,0-.48-2.87,4.16,4.16,0,0,0-1.47-1.9,3.56,3.56,0,0,0-2.14-.68,3.86,3.86,0,0,0-2.91,1.3c-.82.87-1.22,2.32-1.22,4.36m-1.65,0a7.79,7.79,0,0,1,1.61-5.26A5.41,5.41,0,0,1,201.07,93a9.61,9.61,0,0,1,0,7.3,5.37,5.37,0,0,1-5,3.28,5.17,5.17,0,0,1-3-.92,5.79,5.79,0,0,1-2-2.51,8.38,8.38,0,0,1-.69-3.38m-2.17,1.85,1.6.45a6.17,6.17,0,0,1-1.8,3.36,4.66,4.66,0,0,1-3.19,1.15,5.25,5.25,0,0,1-3.17-.89,5.4,5.4,0,0,1-1.85-2.56,10.16,10.16,0,0,1-.64-3.62,8.62,8.62,0,0,1,.73-3.68,5.32,5.32,0,0,1,2-2.4,5.51,5.51,0,0,1,2.93-.81,4.48,4.48,0,0,1,3,1,5.39,5.39,0,0,1,1.72,2.88l-1.57.42a4,4,0,0,0-1.21-2.13,3,3,0,0,0-2-.68,3.67,3.67,0,0,0-2.32.73,3.89,3.89,0,0,0-1.32,2,9.06,9.06,0,0,0-.37,2.59,9.24,9.24,0,0,0,.44,3,3.62,3.62,0,0,0,3.45,2.54,3.12,3.12,0,0,0,2.25-.87,4.39,4.39,0,0,0,1.26-2.56m-23.58,4.73V89.77h8.72v1.61h-7.12v4.13h6.66V97.1h-6.66v4.58h7.39v1.6Zm-15.2,0V89.77H158v1.61h-7.11v4.13h6.66V97.1h-6.66v4.58h7.38v1.6Zm-11.47,0V89.77h1.63l6.33,10.61V89.77h1.53v13.51H145.7l-6.33-10.62v10.62Zm-10.66-6.54a5.8,5.8,0,0,0,1.18,3.85,3.8,3.8,0,0,0,5.35.54,3.45,3.45,0,0,0,.54-.54,6.27,6.27,0,0,0,1.16-4,7.81,7.81,0,0,0-.49-2.87,4.09,4.09,0,0,0-1.46-1.9,3.56,3.56,0,0,0-2.14-.68,3.83,3.83,0,0,0-2.91,1.3c-.82.87-1.23,2.32-1.23,4.36m-1.65,0a7.8,7.8,0,0,1,1.62-5.26,5.17,5.17,0,0,1,4.15-1.91,5.25,5.25,0,0,1,3,.91,5.43,5.43,0,0,1,2,2.49,9.52,9.52,0,0,1,0,7.3,5.4,5.4,0,0,1-5,3.28,5.18,5.18,0,0,1-3-.92,5.85,5.85,0,0,1-2-2.51,8.55,8.55,0,0,1-.69-3.38m-3.92-6.93h1.6V103.4h-1.6ZM110.84,103.4v-1.66l6.1-8.74c.44-.62.86-1.15,1.25-1.6h-6.72V89.77h8.62v1.61l-6.77,9.36-.72.94h7.69v1.6Zm-7.4-5.54h4.09L106.2,94c-.39-1.13-.68-2.07-.86-2.81a19.06,19.06,0,0,1-.64,2.58ZM100,103.4l4.64-13.51h1.72l4.93,13.51h-1.82L108,99.19h-5l-1.33,4.09ZM88,103.4V89.77h2.41l2.84,9.57c.27.89.45,1.55.57,2,.15-.49.36-1.21.66-2.17l2.87-9.4h2.14v13.51h-1.6V92l-3.5,11.3H93L89.5,91.79v11.49ZM76.84,96.74A5.84,5.84,0,0,0,78,100.59,3.7,3.7,0,0,0,80.94,102a3.65,3.65,0,0,0,3-1.41,6.15,6.15,0,0,0,1.16-4,7.8,7.8,0,0,0-.48-2.87,4.16,4.16,0,0,0-1.47-1.9A3.5,3.5,0,0,0,81,91.08a3.83,3.83,0,0,0-2.92,1.3c-.82.87-1.22,2.32-1.22,4.36m-1.65,0a7.89,7.89,0,0,1,1.61-5.26,5.45,5.45,0,0,1,7.17-1A5.55,5.55,0,0,1,86,93a9.61,9.61,0,0,1,0,7.3,5.37,5.37,0,0,1-5,3.28,5.18,5.18,0,0,1-3-.92,5.79,5.79,0,0,1-2-2.51,8.38,8.38,0,0,1-.69-3.38m-6.07,6.58V91.38h-4V89.77h9.54v1.61h-4v11.9ZM62.55,89.77h1.6v7.82a9.74,9.74,0,0,1-.42,3.22,3.71,3.71,0,0,1-1.48,2,4.73,4.73,0,0,1-2.81.75,5.2,5.2,0,0,1-2.78-.66,3.68,3.68,0,0,1-1.53-1.9,10.13,10.13,0,0,1-.45-3.37V89.77h1.58v7.8a8.16,8.16,0,0,0,.3,2.6,2.4,2.4,0,0,0,1,1.28,3.17,3.17,0,0,0,1.75.46,3.09,3.09,0,0,0,2.51-.91,5.58,5.58,0,0,0,.74-3.43Zm-16.28,8h4.09L49.1,94c-.39-1.13-.67-2.07-.86-2.81a19.06,19.06,0,0,1-.64,2.58Zm-3.48,5.54L47.44,89.8h1.71l4.93,13.51H52.27l-1.42-4.09h-5l-1.33,4.09Z"/></g></g></svg>