<svg xmlns="http://www.w3.org/2000/svg" viewBox="0 0 113.3 113.3"><defs><style>.cls-1{fill:#263c75;}</style></defs><g id="Layer_2" data-name="Layer 2"><g id="Layer_1-2" data-name="Layer 1"><rect class="cls-1" x="103" width="10.3" height="10.3"/><path class="cls-1" d="M93.38,42.45l-.68-.31V10.3H72.1L61.8,19.13,60.08,20.6,55,25,51.5,23.41,45.32,20.6,41.2,18.73,30.9,14.05,22.66,10.3,20.6,9.36,0,0V21.2l5.42,9.7,4.88,8.72.88,1.58,5.76,10.3,2.3,4.11L12,61.8,10.3,63.27,0,72.1H0V103l20.6-5.62,10.3-2.81,6.87-1.87,1.92-.53.29.53,1.22,2.18L45.74,103l5.76,10.3H72.05l0-.15L75.16,103l3.1-10.3,3.1-10.3.52-1.74h0l.52-.13,10.3-2.81,20.6-5.62V51.5L103,46.82Zm-11.95,21-9,2.45-4.5,1.23-.23.06h0l-.23.76-1.35,4.5-1.36,4.51-1.33,4.44,0,.06h-9l-2.52-4.5-2-3.55-.53-1-.13-.22-.84.22-3,.82-4.51,1.23-9,2.46V63.41h0l4.51-3.87.75-.64,3.16-2.71-1-1.79-2.52-4.51-.38-.69-2.14-3.81-2.37-4.24V31.87l9,4.1.9.41L45.39,38l4.5,2,1.8.82,2.71,1.23,1.51.69,2.24-1.92.75-.64,4.51-3.86h9V50.3l.31.14,4.2,1.91,4.51,2Z"/></g></g></svg>